<?xml version="1.0" encoding="iso-8859-1"?>
<!-- Generator: Adobe Illustrator 19.0.0, SVG Export Plug-In . SVG Version: 6.00 Build 0)  -->
<svg version="1.1" id="Layer_1" xmlns="http://www.w3.org/2000/svg" xmlns:xlink="http://www.w3.org/1999/xlink" x="0px" y="0px"
	 viewBox="0 0 503.82 503.82" style="enable-background:new 0 0 503.82 503.82;" xml:space="preserve">
<g transform="translate(9 1)">
	<path style="fill:#AE938D;" d="M354.52,140.153c102.4,102.4,102.4,221.867,85.333,290.133l-34.133-8.533
		c17.067-102.4,0-179.2-76.8-256L354.52,140.153z M354.52,140.153l-25.6,25.6c-76.8-76.8-153.6-93.867-256-76.8L64.387,54.82
		C132.653,37.753,252.12,37.753,354.52,140.153z"/>
	<polygon style="fill:#ECF4F7;" points="491.053,3.62 465.453,80.42 448.387,46.287 414.253,29.22 	"/>
</g>
<path style="fill:#51565F;" d="M47.787,503.82c-1.707,0-3.413-1.707-4.267-3.413l-7.68-31.573l-31.573-7.68
	c-2.56-0.853-3.413-2.56-3.413-5.12c0.853-2.56,2.56-3.413,5.12-3.413l31.573,7.68l18.773-18.773L29.867,434.7
	c-2.56-0.853-3.413-2.56-3.413-5.12c0.853-2.56,2.56-3.413,5.12-3.413l31.573,7.68l18.773-18.773l-26.453-6.827
	c-2.56-0.853-3.413-2.56-3.413-5.12c0.853-2.56,2.56-3.413,5.12-3.413l31.573,7.68l30.72-30.72L76.801,89.1
	c0-2.56,0.853-4.267,3.413-5.12c109.227-17.92,183.467,3.413,256.853,75.093l19.627-19.627
	C241.494,27.66,110.934,48.993,73.387,58.38c-2.56,0.853-4.267-0.853-5.12-3.413c-0.853-2.56,0.853-4.267,3.413-5.12
	c39.253-9.387,175.787-32.427,294.4,86.187l0,0c118.613,118.613,96.427,255.147,86.187,294.4c-0.853,2.56-2.56,3.413-5.12,3.413
	c-2.56-0.853-3.413-2.56-3.413-5.12c9.387-37.547,30.72-168.107-81.067-283.307l-19.627,19.627
	c71.68,72.533,93.013,147.627,75.093,256.853c0,2.56-2.56,3.413-5.12,3.413l-288.427-42.667l-30.72,30.72l7.68,31.573
	c0.853,2.56-0.853,4.267-3.413,5.12s-4.267-0.853-5.12-3.413l-6.827-26.453l-18.773,18.773l7.68,31.573
	c0.853,2.56-0.853,4.267-3.413,5.12c-2.56,0.853-4.267-0.853-5.12-3.413l-6.827-26.453l-18.773,18.773l7.68,31.573
	c0.853,2.56-0.853,4.267-3.413,5.12C48.64,503.82,47.787,503.82,47.787,503.82z M133.973,377.527l277.333,40.96
	C427.52,314.38,406.187,242.7,337.92,173.58L133.973,377.527z M87.04,94.22L128,371.553l203.947-203.947
	C261.973,98.487,190.293,77.153,87.04,94.22z M389.12,119.82c-0.853,0-2.56,0-3.413-0.853c-0.853-0.853-0.853-1.707-0.853-3.413
	s0-2.56,0.853-3.413l64-64l-29.013-14.507c-1.707-0.853-2.56-2.56-2.56-4.267c0-1.707,0.853-3.413,2.56-3.413l76.8-25.6
	c1.707-0.853,3.413,0,4.267,0.853c0.853,0.853,1.707,2.56,0.853,4.267l-25.6,76.8c-0.853,1.707-1.707,2.56-3.413,2.56
	s-3.413-0.853-4.267-2.56L454.827,53.26l-64,64C391.68,119.82,389.973,119.82,389.12,119.82z M460.8,45.58l12.8,24.747l19.627-58.88
	l-58.88,19.627l24.747,12.8l0.853,0.853l0,0C460.8,44.727,460.8,45.58,460.8,45.58z"/>
<g>
</g>
<g>
</g>
<g>
</g>
<g>
</g>
<g>
</g>
<g>
</g>
<g>
</g>
<g>
</g>
<g>
</g>
<g>
</g>
<g>
</g>
<g>
</g>
<g>
</g>
<g>
</g>
<g>
</g>
</svg>
